<svg xmlns="http://www.w3.org/2000/svg" viewBox="0 0 123 123" style="fill:#fff;">
    <path
        d="M81.837 28.349c13.069 0 24.811 5.718 32.775 14.856c2.706 3.063 7.76.97 7.352-3.114a45.802 45.802 0 0 0-1.532-8.066c-4.033-14.397-15.571-25.629-30.019-29.407c-29.049-7.658-55.187 14.09-55.187 41.914c0 1.787.102 3.574.306 5.31c.51 4.033 5.922 5.054 7.862 1.48c7.352-13.682 21.8-22.973 38.443-22.973z">
    </path>
    <path
        d="M27.364 41.162c0-13.069 5.718-24.811 14.856-32.775c3.063-2.706.97-7.76-3.114-7.352c-2.706.255-5.412.766-8.118 1.48C16.592 6.6 5.36 18.088 1.582 32.536c-7.607 29.1 14.142 55.238 41.965 55.238c1.787 0 3.574-.102 5.31-.306c4.033-.51 5.054-5.922 1.48-7.862c-13.682-7.352-22.973-21.8-22.973-38.443z">
    </path>
    <path
        d="M40.178 95.636c-13.07 0-24.812-5.718-32.776-14.856c-2.706-3.064-7.76-.97-7.351 3.114c.255 2.654.765 5.36 1.531 8.066c4.033 14.397 15.571 25.628 30.02 29.406C60.7 128.973 86.84 107.225 86.84 79.401c0-1.787-.102-3.573-.306-5.31c-.511-4.032-5.922-5.053-7.863-1.48c-7.402 13.733-21.85 23.025-38.493 23.025z">
    </path>
    <path
        d="M94.65 82.822c0 13.07-5.717 24.811-14.856 32.775c-3.063 2.706-.97 7.76 3.115 7.352a45.708 45.708 0 0 0 8.066-1.532c14.397-4.033 25.628-15.571 29.406-30.018c7.607-29.1-14.141-55.24-41.965-55.24c-1.787 0-3.574.103-5.31.307c-4.033.51-5.054 5.922-1.48 7.862c13.733 7.403 23.025 21.85 23.025 38.494z">
    </path>
</svg>