<svg xmlns="http://www.w3.org/2000/svg" id="sololearnRound" viewBox="0 0 396 396">
    <g fill="none">
        <path
            d="M265.601 88.81c42.417 0 80.526 18.557 106.374 48.216c8.781 9.941 25.185 3.148 23.859-10.107c-.828-8.616-2.485-17.398-4.971-26.179c-13.089-46.725-50.535-83.177-97.426-95.438c-94.277-24.854-179.111 45.73-179.111 136.032c0 5.799.332 11.598.994 17.232c1.657 13.089 19.22 16.403 25.517 4.805c23.859-44.405 70.749-74.561 124.764-74.561z"
            fill="#FFA30F"></path>
        <path
            d="M88.809 130.398c0-42.417 18.557-80.526 48.216-106.373c9.941-8.782 3.148-25.185-10.107-23.86c-8.782.829-17.564 2.486-26.345 4.805c-46.725 13.255-83.177 50.536-95.438 97.426c-24.688 94.444 45.896 179.277 136.198 179.277c5.799 0 11.598-.331 17.231-.994c13.09-1.657 16.404-19.22 4.806-25.516c-44.405-23.86-74.561-70.75-74.561-124.765z"
            fill="#149EF2"></path>
        <path
            d="M130.398 307.19c-42.417 0-80.525-18.557-106.373-48.216c-8.782-9.941-25.185-3.148-23.86 10.107c.829 8.616 2.486 17.398 4.971 26.179c13.09 46.725 50.536 83.177 97.426 95.438c94.444 24.688 179.277-45.896 179.277-136.198c0-5.799-.331-11.598-.994-17.231c-1.657-13.09-19.22-16.404-25.516-4.805c-24.025 44.57-70.916 74.726-124.931 74.726z"
            fill="#F20057"></path>
        <path
            d="M307.19 265.602c0 42.416-18.557 80.525-48.216 106.373c-9.941 8.781-3.148 25.185 10.107 23.859c8.616-.828 17.398-2.485 26.179-4.97c46.725-13.09 83.177-50.536 95.438-97.426c24.688-94.444-45.896-179.277-136.197-179.277c-5.8 0-11.599.331-17.232.994c-13.09 1.657-16.404 19.22-4.805 25.516c44.571 24.025 74.726 70.916 74.726 124.931z"
            fill="#8252DE"></path>
    </g>
</svg>